<?xml version="1.0" encoding="utf-8"?>
<svg xmlns="http://www.w3.org/2000/svg"
	xmlns:xlink="http://www.w3.org/1999/xlink"
	width="120px" height="120px" viewBox="0 0 120 120">
<path fillRule="evenodd" d="M 59.89 100C 73.89 100 86.61 92.87 93.94 80.93 97.76 74.71 99.78 67.53 99.78 60.17 99.78 40.17 84.82 23.18 64.99 20.67 63.31 20.45 61.6 20.34 59.89 20.34 37.89 20.34 20 38.21 20 60.17 20 82.13 37.89 100 59.89 100M 59.89 120C 26.81 120-0 93.21-0 60.17-0 27.13 26.81 0.34 59.89 0.34 62.47 0.34 65.01 0.51 67.51 0.82 96.99 4.56 119.78 29.71 119.78 60.17 119.78 71.61 116.56 82.3 110.99 91.39 100.46 108.55 81.51 120 59.89 120 59.89 120 59.89 120 59.89 120Z" fill="rgb(222,220,213)"/></svg>